<?xml version="1.0" encoding="UTF-8"?>
<svg width="38px" height="44px" viewBox="0 0 38 44" version="1.1" xmlns="http://www.w3.org/2000/svg" xmlns:xlink="http://www.w3.org/1999/xlink">
    <title>Combined Shape</title>
    <g id="Symbols" stroke="none" stroke-width="1" fill="none" fill-rule="evenodd">
        <g id="CocoaHub" transform="translate(-65.000000, -75.000000)" fill="#FFFFFF" fill-rule="nonzero">
            <path d="M84,75 L103,85.999305 L103,108 L84,119 L65,108 L65,85.999305 L84,75 Z M93.259,104.079 L84.1127596,109.360825 L74.966,104.08 L69.255,107.253 L84,115.789929 L98.856,107.189 L93.259,104.079 Z M82.699,78.963 L67.7721039,87.6039929 L67.772,104.836 L73.456,101.677 L73.4569733,90.9042505 L82.699,85.568 L82.699,78.963 Z M85.526,79.093 L85.526,85.568 L94.768546,90.9042505 L94.768,101.677 L100.227,104.711 L100.227896,87.6039929 L85.526,79.093 Z M89.2449576,93.4890561 C88.7246908,93.4890561 88.2914261,93.68785 88.2434149,93.7107201 C86.5071552,94.5372101 85.5969937,95.9251433 84.7915028,97.3301051 L84.5258929,97.7983096 C83.5461734,99.5349707 82.6205756,101.17546 80.3093454,101.838693 C80.1347592,101.888831 79.9991639,102.028691 79.9534805,102.205787 C79.9077971,102.383177 79.9587181,102.571415 80.0870389,102.700719 C80.8767505,103.496188 81.9219398,103.917526 83.1094169,103.917526 L83.1094169,103.917526 L83.3758107,103.910628 C85.069886,103.823451 86.8878986,102.913455 88.405489,101.384516 C89.3700777,100.412244 90.1149788,99.3300195 90.5595917,98.2548319 C91.022827,97.133904 91.1595862,96.0208928 90.9553204,95.0363059 C90.7516365,94.0528919 90.1280728,93.4890561 89.2449576,93.4890561 Z M84.7779873,90.0824742 C83.0098115,90.0824742 81.0795699,91.0055137 79.4821888,92.615555 C78.517359,93.5878545 77.7724963,94.6698163 77.3279065,95.7450341 C76.8644041,96.8659935 76.727652,97.9787428 76.9319073,98.9636506 C77.1361626,99.946799 77.7594031,100.510944 78.6424726,100.510944 L78.6424726,100.510944 L78.7820543,100.506303 C79.2386416,100.476299 79.6009013,100.310305 79.6445456,100.28898 C81.3807156,99.4622033 82.2905943,98.0742047 83.0962086,96.6692008 L83.0962086,96.6692008 L83.3618755,96.2009828 C84.3415444,94.4642729 85.2670944,92.8237373 87.5782052,92.1607792 C87.7527824,92.1106395 87.8880797,91.9710693 87.9337607,91.7936745 C87.9794417,91.6165729 87.9285234,91.4283291 87.8002092,91.2987283 C87.0102475,90.5029439 85.9654031,90.0824742 84.7779873,90.0824742 Z" id="Combined-Shape"></path>
        </g>
    </g>
</svg>