<?xml version="1.0" encoding="UTF-8"?>
<svg width="18px" height="18px" viewBox="0 0 18 18" version="1.1" xmlns="http://www.w3.org/2000/svg" xmlns:xlink="http://www.w3.org/1999/xlink">
    <!-- Generator: Sketch 53.2 (72643) - https://sketchapp.com -->
    <title>Combined Shape@3x</title>
    <desc>Created with Sketch.</desc>
    <defs>
        <linearGradient x1="50%" y1="0%" x2="50%" y2="130.407181%" id="linearGradient-1">
            <stop stop-color="#32B6FF" offset="0%"></stop>
            <stop stop-color="#0071FF" offset="100%"></stop>
        </linearGradient>
    </defs>
    <g id="Settings" stroke="none" stroke-width="1" fill="none" fill-rule="evenodd">
        <g transform="translate(-32.000000, -132.000000)" fill="url(#linearGradient-1)" fill-rule="nonzero" id="Appearance">
            <g transform="translate(16.000000, 96.000000)">
                <g id="App-Icon" transform="translate(0.000000, 18.000000)">
                    <path d="M21.5,18.5 L28.5,18.5 C31.2614237,18.5 33.5,20.7385763 33.5,23.5 L33.5,30.5 C33.5,33.2614237 31.2614237,35.5 28.5,35.5 L21.5,35.5 C18.7385763,35.5 16.5,33.2614237 16.5,30.5 L16.5,23.5 C16.5,20.7385763 18.7385763,18.5 21.5,18.5 Z M21.9117647,19.5 C19.4752143,19.5 17.5,21.4752143 17.5,23.9117647 L17.5,30.0882353 C17.5,32.5247857 19.4752143,34.5 21.9117647,34.5 L28.0882353,34.5 C30.5247857,34.5 32.5,32.5247857 32.5,30.0882353 L32.5,23.9117647 C32.5,21.4752143 30.5247857,19.5 28.0882353,19.5 L21.9117647,19.5 Z M24.4128519,32 C24.4126471,32 24.4128519,32 24.4128519,32 C23.5770546,32 22.8414055,31.6954565 22.2855725,31.1204903 C22.1952548,31.0270291 22.1594145,30.89097 22.1915684,30.7627523 C22.2237223,30.6347465 22.3191601,30.5336559 22.4420414,30.4974158 C24.0687844,30.0180301 24.7202598,28.8322813 25.4098286,27.5770196 C26.0285357,26.4510352 26.6685422,25.2862675 28.0263801,24.6225026 C28.0601725,24.6059721 28.3651228,24.4622835 28.7313089,24.4622835 C29.3528833,24.4622835 29.7917742,24.869825 29.9351357,25.5806384 C30.0789068,26.2922995 29.9826498,27.096786 29.6566049,27.9069947 C29.3436672,28.6841423 28.8193738,29.4663761 28.1404549,30.1691362 C27.0160914,31.3324203 25.6574343,32 24.4128519,32 Z M21.2688247,29.5377165 C20.6472824,29.5377165 20.208619,29.1299516 20.0648554,28.4193301 C19.9210917,27.7074371 20.0173437,26.9031398 20.3435766,26.0929084 C20.6564981,25.3157391 21.1807644,24.5336951 21.859853,23.8309153 C22.9841585,22.6671746 24.3427454,22 25.5872635,22 C26.4230177,22 27.158424,22.3039162 27.7144329,22.8791107 C27.804746,22.9727863 27.8405846,23.1088492 27.8084323,23.2368586 C27.77628,23.3650799 27.6810519,23.4659614 27.558177,23.5022025 C25.931518,23.9813899 25.2800762,25.1671719 24.5905431,26.422469 C23.9716632,27.548485 23.3318945,28.7132854 21.9741267,29.3772809 C21.9403361,29.3942358 21.6351967,29.5377165 21.2688247,29.5377165 Z" id="Combined-Shape"></path>
                </g>
            </g>
        </g>
    </g>
</svg>