<?xml version="1.0" encoding="UTF-8"?>
<svg width="25px" height="25px" viewBox="0 0 25 25" version="1.1" xmlns="http://www.w3.org/2000/svg" xmlns:xlink="http://www.w3.org/1999/xlink">
    <!-- Generator: Sketch 53.2 (72643) - https://sketchapp.com -->
    <title>[Tab Item] Articles</title>
    <desc>Created with Sketch.</desc>
    <defs>
        <linearGradient x1="50%" y1="0%" x2="50%" y2="100%" id="linearGradient-1">
            <stop stop-color="#00B2FF" offset="0%"></stop>
            <stop stop-color="#007AFF" offset="100%"></stop>
        </linearGradient>
    </defs>
    <g id="Articles" stroke="none" stroke-width="1" fill="none" fill-rule="evenodd">
        <g id="Articles-(Error)" transform="translate(-101.000000, -739.000000)" fill="url(#linearGradient-1)" fill-rule="nonzero">
            <g id="Tab-Bar" transform="translate(0.000000, 727.000000)">
                <g id="[Tab-Item]-Articles" transform="translate(101.000000, 12.000000)">
                    <path d="M21.09375,21.875 L21.09375,23.4375 C21.09375,24.296875 20.390625,25 19.53125,25 L5.46875,25 C4.609375,25 3.90625,24.296875 3.90625,23.4375 L3.90625,6.25 C3.90625,5.390625 4.609375,4.6875 5.46875,4.6875 L16.1924692,4.6875 L16.1889556,0.988781607 L1.0127336,1.06336683 L1.00612299,18.8556756 L2.33295447,18.8556756 C2.76264197,18.8556756 2.96978926,18.893074 2.96978926,19.3227615 C2.96978926,19.752449 2.76925258,19.8133668 2.33956508,19.8133668 L1.0127336,19.8133668 C-0.00289140088,19.8133668 -6.37268016e-14,19.5078125 -6.37268016e-14,18.75 L-6.37268016e-14,1.5625 C-6.37268016e-14,0.703125 0.703125,0 1.5625,0 L15.625,0 C16.484375,0 17.1875,0.703125 17.1875,1.5625 L17.1875,4.6875 L19.53125,4.6875 C20.390625,4.6875 21.09375,5.390625 21.09375,6.25 L21.09375,20.7044182 L24.0517725,20.7044182 L24.0427217,2.63915805 L18.7744492,2.63915805 C18.3447617,2.63915805 17.9834492,2.58519296 17.9834492,2.15550546 C17.9834492,1.72581796 18.3203125,1.5625 18.75,1.5625 L23.4375,1.5625 C24.296875,1.5625 25,2.265625 25,3.125 L25,20.3125 C25,21.171875 24.296875,21.875 23.4375,21.875 L21.09375,21.875 Z M20.1451529,21.8483196 C20.1093229,21.8245536 20.1182596,21.7848508 20.1452952,21.7289744 L20.1464528,20.7586175 C20.1457767,20.7541151 20.1457517,20.7499398 20.1464678,20.7460751 L20.1644396,5.68075636 L17.1051195,5.68075636 C17.0602584,5.70214663 16.998731,5.69679424 16.9246825,5.68075636 L4.87154927,5.68075636 L4.85238286,23.9680914 L20.1426452,23.9504092 L20.1451529,21.8483196 Z M12.125,11 L9.78125,11 C9.3515625,11 9,10.775 9,10.5 C9,10.225 9.3515625,10 9.78125,10 L12.125,10 C12.5546875,10 12.90625,10.225 12.90625,10.5 C12.90625,10.775 12.5546875,11 12.125,11 Z M16.03125,13.34375 L9.78125,13.34375 C9.3515625,13.34375 9,13.11875 9,12.84375 C9,12.56875 9.3515625,12.34375 9.78125,12.34375 L16.03125,12.34375 C16.4609375,12.34375 16.8125,12.56875 16.8125,12.84375 C16.8125,13.11875 16.4609375,13.34375 16.03125,13.34375 Z M16.03125,16.46875 L9.78125,16.46875 C9.3515625,16.46875 9,16.24375 9,15.96875 C9,15.69375 9.3515625,15.46875 9.78125,15.46875 L16.03125,15.46875 C16.4609375,15.46875 16.8125,15.69375 16.8125,15.96875 C16.8125,16.24375 16.4609375,16.46875 16.03125,16.46875 Z M16.03125,19.59375 L9.78125,19.59375 C9.3515625,19.59375 9,19.36875 9,19.09375 C9,18.81875 9.3515625,18.59375 9.78125,18.59375 L16.03125,18.59375 C16.4609375,18.59375 16.8125,18.81875 16.8125,19.09375 C16.8125,19.36875 16.4609375,19.59375 16.03125,19.59375 Z" id="Combined-Shape"></path>
                </g>
            </g>
        </g>
    </g>
</svg>