<?xml version="1.0" encoding="UTF-8"?>
<svg width="26px" height="25px" viewBox="0 0 26 25" version="1.1" xmlns="http://www.w3.org/2000/svg" xmlns:xlink="http://www.w3.org/1999/xlink">
    <!-- Generator: Sketch 53.2 (72643) - https://sketchapp.com -->
    <title>[Tab Item] Events@3x</title>
    <desc>Created with Sketch.</desc>
    <defs>
        <linearGradient x1="50%" y1="0%" x2="50%" y2="100%" id="linearGradient-1">
            <stop stop-color="#00B2FF" offset="0%"></stop>
            <stop stop-color="#007AFF" offset="100%"></stop>
        </linearGradient>
    </defs>
    <g id="Events" stroke="none" stroke-width="1" fill="none" fill-rule="evenodd">
        <g transform="translate(-26.000000, -739.000000)" fill="url(#linearGradient-1)" fill-rule="nonzero" id="Tab-Bar">
            <g transform="translate(0.000000, 727.000000)">
                <g id="[Tab-Item]-Events" transform="translate(26.000000, 12.000000)">
                    <path d="M22.7739222,1.94201313 L19.4111462,1.94201313 L19.4111462,1.23085339 C19.4111462,0.547045952 18.8643533,0 18.1808623,0 C17.4973712,0 16.9505783,0.547045952 16.9505783,1.23085339 L16.9505783,1.94201313 L8.99474238,1.94201313 L8.99474238,1.23085339 C8.99474238,0.547045952 8.44794953,0 7.76445846,0 C7.0809674,0 6.53417455,0.547045952 6.53417455,1.23085339 L6.53417455,1.94201313 L3.19873817,1.94201313 C1.44900105,1.94201313 0,3.3643326 0,5.14223195 L0,21.7997812 C0,23.5503282 1.42166141,25 3.19873817,25 L22.8012618,25 C24.5509989,25 26,23.5776805 26,21.7997812 L26,5.14223195 C25.9726604,3.3643326 24.5509989,1.94201313 22.7739222,1.94201313 Z M2.33022495,3.05532732 L6.55051257,3.05532732 L6.55051257,4.13847078 C6.55051257,4.82227822 7.09730542,5.36932418 7.78079648,5.36932418 C8.46428754,5.36932418 9.01108039,4.82227822 9.01108039,4.13847078 L9.01108039,3.02080525 L16.9669164,3.05532732 L16.9669164,4.13847078 C16.9669164,4.82227822 17.5137092,5.36932418 18.1972003,5.36932418 C18.8806913,5.36932418 19.4274842,4.82227822 19.4274842,4.13847078 L19.4274842,3.02080525 L23.6980292,3.02080525 C24.1081238,3.02080525 24.8663253,3.75553862 24.8663253,4.16582308 L24.8663253,9.55350639 L1.16778937,9.55350639 L1.16778937,4.16582308 C1.16778937,3.75553862 1.92013032,3.05532732 2.33022495,3.05532732 Z M23.6274254,24.0522824 L2.34612096,24.0522824 C1.93602632,24.0522824 1.16443926,23.2595096 1.16443926,22.8492251 L1.16443926,10.4422772 L24.8526898,10.4422772 L24.8526898,22.8492251 C24.8253502,23.2595096 24.03752,24.0522824 23.6274254,24.0522824 Z" id="Events"></path>
                </g>
            </g>
        </g>
    </g>
</svg>