<?xml version="1.0" encoding="UTF-8"?>
<svg width="336px" height="388px" viewBox="0 0 336 388" version="1.1" xmlns="http://www.w3.org/2000/svg" xmlns:xlink="http://www.w3.org/1999/xlink">
    <!-- Generator: Sketch 53.2 (72643) - https://sketchapp.com -->
    <title>Combined Shape</title>
    <desc>Created with Sketch.</desc>
    <g id="Default" stroke="none" stroke-width="1" fill="none" fill-rule="evenodd">
        <g id="Icon" transform="translate(-88.000000, -62.000000)" fill="#FFFFFF" fill-rule="nonzero">
            <path d="M256,450 L88,353 L88,158.993872 L256,62 L424,158.993872 L424,353 L256,450 Z M117.928217,341.975044 L256,421.693012 L393.293551,342.434673 L333.418734,307.864481 L256.042895,352.528115 L178.507733,307.766427 L117.928217,341.975044 Z M399.488766,331.85096 L399.488766,173.144301 L262.636417,94.1372252 L262.636417,163.259224 L339.638459,207.72675 L339.638459,297.293025 L399.488766,331.85096 Z M250.386927,93.5489007 L112.511234,173.144301 L112.511234,330.950088 L172.441202,297.109174 L172.441202,207.72675 L250.386927,162.713798 L250.386927,93.5489007 Z M249.541371,310 C263.231777,310 278.177005,302.923655 290.545004,290.592844 C298.013112,283.143587 303.780339,274.851908 307.222653,266.614144 C310.809147,258.025932 311.867974,249.498375 310.286492,241.954767 C308.709516,234.420145 303.881716,230.100205 297.044398,230.100205 C293.016351,230.100205 289.661897,231.623304 289.290181,231.798528 C274.353964,238.834436 267.313892,251.180973 260.508114,263.116408 C252.922858,276.422182 245.756628,288.991119 227.862455,294.072608 C226.510761,294.456753 225.460945,295.528313 225.107252,296.885174 C224.753559,298.244282 225.147803,299.686508 226.141298,300.677197 C232.25546,306.771839 240.3476,310 249.541371,310 C249.541371,310 249.539118,310 249.541371,310 Z M214.957072,283.899795 C218.987164,283.899795 222.343697,282.3789 222.715394,282.199178 C237.650839,275.160825 244.688295,262.813941 251.495974,250.878171 C259.080838,237.572022 266.246698,225.002733 284.139947,219.923347 C285.491571,219.539191 286.53908,218.469847 286.892755,217.110701 C287.24643,215.753802 286.852206,214.311535 285.858762,213.318573 C279.742664,207.221512 271.653194,204 262.459898,204 C248.770199,204 233.825743,211.072051 221.458383,223.407702 C213.988408,230.857168 208.221479,239.146834 204.779343,247.384829 C201.190781,255.973282 200.132009,264.498833 201.713409,272.044899 C203.294809,279.577487 208.120107,283.899795 214.957072,283.899795 Z" id="Combined-Shape"></path>
        </g>
    </g>
</svg>