<?xml version="1.0" encoding="UTF-8"?>
<svg width="25px" height="25px" viewBox="0 0 25 25" version="1.1" xmlns="http://www.w3.org/2000/svg" xmlns:xlink="http://www.w3.org/1999/xlink">
    <!-- Generator: Sketch 53.2 (72643) - https://sketchapp.com -->
    <title>[Tab Item] News</title>
    <desc>Created with Sketch.</desc>
    <defs>
        <linearGradient x1="50%" y1="0%" x2="50%" y2="100%" id="linearGradient-1">
            <stop stop-color="#00B2FF" offset="0%"></stop>
            <stop stop-color="#007AFF" offset="100%"></stop>
        </linearGradient>
    </defs>
    <g id="News" stroke="none" stroke-width="1" fill="none" fill-rule="evenodd">
        <g id="Feed" transform="translate(-175.000000, -814.000000)" fill="url(#linearGradient-1)" fill-rule="nonzero">
            <g id="Tab-Bar" transform="translate(0.000000, 802.000000)">
                <g id="[Tab-Item]-News" transform="translate(175.000000, 12.000000)">
                    <path d="M16.7088359,1.91564447 C16.7425862,2.20435137 16.7647938,2.42801253 16.5570313,2.32265625 C16.5367188,2.3125 16.5164063,2.30390625 16.4984375,2.29765625 C16.5117187,2.315625 16.5265625,2.33671875 16.5445312,2.359375 L16.6304687,2.4671875 C16.7945313,2.67109375 16.6221657,2.4578125 16.7331032,2.8046875 C16.8096657,3.03984375 16.775,2.925 16.6304687,3.1265625 C16.4859375,3.328125 16.5181869,3.39894712 16.2697494,3.40285337 C15.8822494,3.40910337 15.4603744,3.49504087 15.0142807,3.58644712 C14.4931869,3.69504087 13.9556869,3.80519712 13.3963119,3.80519712 C13.3041244,3.80519712 13.2111557,3.80207212 13.1166244,3.79582212 C12.5595932,3.75675962 12.0603744,3.54035337 11.6197494,3.34894712 C11.3197494,3.21847837 10.8547305,2.7463226 10.6016055,2.6978851 C10.4320742,2.66585385 10.4752119,2.72420963 10.2338057,2.22499088 C10.0822432,1.90702213 10.2161319,2.30077213 10.2380069,2.17186588 L10.3017961,1.98046875 C10.3299211,1.8359375 10.1199556,1.54293946 10.1571925,1.39679106 C10.1663273,1.36093834 10.1741174,1.32696341 10.1806639,1.29476943 C7.21775295,1.97873989 4.57654913,3.9206549 2.90381808,6.47136968 C2.98455672,6.61068047 3.02305598,6.77608995 3.00390625,6.9484375 C2.9921875,7.05546875 2.98984375,7.15625 2.99375,7.24140625 C3.003125,7.23984375 3.0125,7.2375 3.02109375,7.2359375 C3.1578125,7.20859375 3.2890625,7.1859375 3.403125,7.178125 C3.98359375,7.140625 5.7484375,7.02734375 5.978125,8.7171875 C6.003125,8.8984375 6.02265625,9.09609375 6.04296875,9.30234375 C6.15859375,10.4648437 6.29296875,11.3023438 6.9703125,11.4773438 C7.19921875,11.5359375 7.48984375,11.4570313 7.8265625,11.3632813 C8.1484375,11.2742188 8.5125,11.1734375 8.9171875,11.1710937 C8.921875,11.1710937 8.92734375,11.1710937 8.93203125,11.1710937 C9.9125,11.1710937 10.5398438,11.7578125 10.9554688,12.146875 C11.3796875,12.54375 11.6265625,12.7632813 11.946875,12.8234375 C11.90625,12.7265625 11.8773438,12.625 11.8609375,12.5195313 C11.8179688,12.2421875 11.8359375,11.7492188 12.334375,11.2921875 C12.2851563,11.2765625 12.2351563,11.2585938 12.184375,11.2375 C11.534375,10.9609375 11.1585938,10.4429687 11.1523438,9.8171875 C11.1453125,9.08671875 11.68125,8.3328125 12.4554688,7.9828125 C13.984375,7.29375 14.80625,8.303125 15.35,8.97109375 L15.5109375,9.1671875 C15.6992188,9.39296875 15.9335938,9.6046875 16.1226563,9.74140625 C16.1171875,9.71484375 16.1117188,9.68984375 16.10625,9.66640625 C16.046875,9.38984375 15.9726563,9.04453125 16.0609375,8.65390625 C16.2117188,7.9890625 16.6859375,7.52578125 17.1296875,7.16015625 C17.3328125,6.99296875 17.54375,6.834375 17.75625,6.67578125 C18.29375,6.27421875 18.8023438,5.89453125 19.1007813,5.3875 C19.275,5.0921875 19.3679688,4.77734375 19.3625,4.50078125 C19.3609375,4.396875 19.3171875,4.28125 19.2484375,4.10234375 C19.1835938,3.93515625 19.109375,3.74609375 19.0648438,3.5171875 C19.0478309,3.43101047 19.0456385,3.34535118 19.0565082,3.26286363 C18.3258064,2.72689584 17.5375911,2.27217821 16.7088359,1.91564447 Z M16.072285,1.66415786 C14.9331916,1.25351774 13.7287256,1.02768925 12.5,1.02768925 C11.9193237,1.02768925 11.3442005,1.07812484 10.7789437,1.1746669 C10.8433154,1.37377439 10.8750966,1.59181491 10.8715801,1.82109375 C10.8684551,2.01484375 10.8418926,2.19453125 10.8114238,2.359375 C11.1262676,2.45078125 11.8210594,2.89366295 12.0890282,3.00928795 C12.4460594,3.16397545 13.0445312,3.10625 13.3351562,3.1265625 C13.7757812,3.15546875 14.9164063,3.1178817 15.446875,3.00928795 C15.5234375,2.99366295 16.1303781,2.9563931 16.2085031,2.9407681 C16.0913156,2.70404935 15.9952219,2.3938931 16.0397531,2.0407681 C16.057839,1.89809057 16.0638355,1.77351784 16.072285,1.66415786 Z M2.24551515,7.60501134 C1.47671272,9.11427089 1.03657847,10.7832258 1.03657847,12.5 C1.03657847,18.53125 6.47603632,24.0293104 12.5072863,24.0293104 C12.6812301,24.0293104 12.8546817,24.0247373 13.0275247,24.0157101 C13.0241101,23.9445868 13.030392,23.8725491 13.046875,23.8015625 L13.2265625,23.046875 C13.4289063,22.209375 13.6382813,21.34375 13.75625,20.4984375 C13.9101563,19.3953125 13.8929688,19.0585938 13.3726563,18.5429688 C12.728125,17.9039063 12.4351563,17.2976563 12.4765625,16.6914063 C12.5,16.3421875 12.6546875,15.8289063 13.25625,15.3757813 C13.346875,15.3070313 13.44375,15.246875 13.5421875,15.1875 C13.5789063,15.165625 13.6257813,15.1367188 13.6640625,15.1109375 C13.615625,14.9632813 13.4648438,14.7117188 13.3867188,14.5804688 C13.3226563,14.4734375 13.2632813,14.3734375 13.215625,14.284375 C13.1640625,14.1867188 13.134375,14.0828125 13.1273438,13.9789063 C13.0789063,13.7351563 13.1210938,13.4890625 13.2539063,13.2757813 C13.5953125,12.7265625 14.3796875,12.6570313 14.8210938,12.6734375 C15.3773438,12.6851563 15.9398438,12.8421875 16.44375,13.1289063 C16.6421875,13.2414063 16.8179688,13.3617188 16.9835938,13.4765625 C17.4226563,13.7804688 17.5507813,13.8570313 17.8734375,13.7710938 C18.0203125,13.7320313 18.259375,13.6273438 18.4921875,13.5273438 C19.2304688,13.2046875 20.15,12.8046875 20.9445313,13.134375 C22.3257813,13.70625 22.1789063,15.74375 21.9,16.5851563 C21.4953125,17.80625 20.9203125,18.6734375 20.1421875,19.2328125 C19.9257813,19.3882813 19.715625,19.5195313 19.5140625,19.6445313 C19.0117188,19.95625 18.68125,20.1617188 18.4398438,20.6476563 C18.0274943,21.4791325 17.5444619,22.329501 16.9160885,23.0433481 C20.954328,21.1970649 23.9779942,16.9967262 23.9779942,12.5 C23.9779942,9.30647724 22.4509122,6.27842348 20.1185606,4.13596364 C20.0682071,4.7252753 19.8446615,5.22023048 19.651162,5.54877651 C19.1933495,6.32690151 18.6462846,6.63590308 18.0376908,7.09059058 C17.8455033,7.23434058 17.6533158,7.37730933 17.4689408,7.52887183 C17.2290971,7.72652808 16.8938896,8.01096084 16.8477958,8.21721084 C16.8345146,8.27111709 16.5929883,8.48662484 16.617207,8.60068734 C16.6812695,8.89912484 16.4918127,8.78977591 16.617207,9.30234375 C16.7920641,10.0170978 16.892207,10.2138934 16.617207,10.2646747 C15.6039258,10.4498309 15.4955694,10.0109375 15.2096319,9.66640625 L15.0369757,9.45625 C14.4494757,8.7359375 13.8376208,8.19140625 13.4462146,8.36640625 C13.2368396,8.4609375 12.3695312,8.62734375 12.334375,8.7171875 C12.219669,8.64237344 11.6277577,9.72796029 11.6277577,10.0201478 C11.6840077,10.0420228 11.7869734,10.2963423 12.334375,10.6311659 C12.8817766,10.9659894 13.8674809,10.5670761 13.4462146,11.1710937 C12.7972189,11.4222397 12.472721,12.1289564 12.472721,13.2912438 C12.472721,15.0346749 12.0773438,13.5465578 11.946875,13.5301516 C11.0820313,13.4184328 10.6506794,12.7203643 10.1741169,12.2750518 C9.7280232,11.8586456 8.94861992,11.8533476 8.69861992,11.9228789 C8.24002617,12.0502226 7.69217063,12.253064 7.05545188,12.087439 C5.27107688,11.6257202 5.3772564,10.8890625 5.2553814,9.66640625 C5.23741265,9.48046875 5.10438408,8.35883713 5.08172783,8.19399338 C5.06532158,8.07836838 4.59178492,7.90546875 3.69881617,7.96484375 C3.64412867,7.96796875 3.58162867,7.9828125 3.51600367,7.99609375 C3.19256617,8.059375 2.70661842,7.94157611 2.24958717,7.60798236 C2.24822803,7.60698927 2.24687069,7.60599894 2.24551515,7.60501134 Z M14.3272903,23.8633283 C15.2423807,23.4669548 16.1020917,23.1961507 16.7668755,22.0498835 C17.3412145,21.0611917 17.8318968,19.6058585 18.6096049,19.1927391 C18.836479,19.0713362 19.6836271,18.6467319 19.9268525,18.4973801 C20.581926,18.0947415 20.7189203,17.8490852 21.1082854,16.8446722 C21.368884,16.1712788 21.5691086,14.6332564 21.3453004,14.5546501 C21.2620016,14.1285966 20.967125,13.4856293 20.531772,13.6472087 C20.140363,13.793067 19.1851138,14.1014222 18.8427587,14.179155 C17.4896897,14.4857193 17.688002,14.6603569 17.021687,14.2655789 C16.8499985,14.1651376 15.6641333,13.484984 15.4607641,13.3854161 C15.1746166,13.2491653 14.0154388,13.2491653 13.7808159,13.4623515 C14.0281291,13.888572 14.4292458,14.7532436 14.4292458,15.3191908 C14.4292458,15.6849924 14.210288,15.6849924 13.8740647,15.8596729 C13.8045717,15.8963558 13.3368363,16.2010518 13.2734751,16.2421017 C13.1048524,16.3512771 13.0965678,16.9357005 13.0955459,16.9479282 C13.0955459,16.949675 12.9691255,17.1062871 13.5516401,17.5997596 C15.0334756,18.8557125 14.6244393,19.6376163 14.4292458,20.823697 C14.3133398,21.5298827 13.9686205,23.1168598 13.754224,23.951353 C13.9462765,23.9273681 14.1373536,23.8979702 14.3272903,23.8633283 Z M12.5,25 C5.6078125,25 0,19.3921875 0,12.5 C0,5.6078125 5.6078125,0 12.5,0 C19.3921875,0 25,5.6078125 25,12.5 C25,19.3921875 19.3921875,25 12.5,25 Z" id="Combined-Shape"></path>
                </g>
            </g>
        </g>
    </g>
</svg>