<?xml version="1.0" encoding="UTF-8"?>
<svg width="27px" height="25px" viewBox="0 0 27 25" version="1.1" xmlns="http://www.w3.org/2000/svg" xmlns:xlink="http://www.w3.org/1999/xlink">
    <!-- Generator: Sketch 53.2 (72643) - https://sketchapp.com -->
    <title>Combined Shape@3x</title>
    <desc>Created with Sketch.</desc>
    <defs>
        <linearGradient x1="50%" y1="0%" x2="50%" y2="100%" id="linearGradient-1">
            <stop stop-color="#00B2FF" offset="0%"></stop>
            <stop stop-color="#007AFF" offset="100%"></stop>
        </linearGradient>
    </defs>
    <g id="Settings" stroke="none" stroke-width="1" fill="none" fill-rule="evenodd">
        <g transform="translate(-28.000000, -191.000000)" fill="url(#linearGradient-1)" fill-rule="nonzero" id="Appearance">
            <g transform="translate(16.000000, 96.000000)">
                <g id="Theme" transform="translate(0.000000, 80.000000)">
                    <path d="M18.7308571,39.9993703 L12.3777573,39.9993703 C12.2324874,40.0081942 12.0972341,39.9236147 12.0389253,39.7874845 C11.9713793,39.6449977 11.9930018,39.4751832 12.0939855,39.3550646 C13.1087302,38.0678024 13.6577115,36.4626899 13.6483773,34.8103308 C13.6448052,33.2282187 14.3519091,31.7317695 15.5670134,30.7499075 C16.4565207,30.0193724 17.5638621,29.6211596 18.7054447,29.6212914 C19.1187685,29.622462 19.5306965,29.6703194 19.9337106,29.76399 C21.6168569,30.1868595 22.9728651,31.4563549 23.5310224,33.1317947 C24.0891796,34.8072346 23.7725162,36.6575761 22.6909559,38.0405079 C21.7333454,39.276836 20.2746806,39.9983644 18.7308571,39.9993703 Z M38.2976602,18.8834599 L25.8643199,30.568063 C25.3595633,29.7116474 24.6603204,28.9932309 23.826268,28.4741269 L35.2130411,15.7221501 C35.7554281,15.1179091 36.5768537,14.8669785 37.3530956,15.0684024 C38.1293374,15.2698262 38.7356783,15.8912422 38.9327912,16.6873729 C39.129904,17.4835036 38.8861191,18.3264365 38.2976602,18.8834599 Z M18.807755,38.9831377 C19.9104862,38.9823639 20.9523896,38.427342 21.6363971,37.4763204 C22.4089402,36.4125267 22.6351283,34.9891871 22.2364446,33.7003872 C21.8377608,32.4115874 20.8691835,31.4350524 19.6669362,31.1097682 C19.379069,31.0377139 19.0848346,31.0009005 18.7896033,31 C17.9741872,30.9998987 17.183229,31.3062162 16.5478667,31.8681662 C15.6799351,32.6234447 15.1748608,33.7745595 15.1774123,34.9915688 C15.1840796,36.2626143 14.7919502,37.4973162 14.0671325,38.4875179 C13.9950013,38.5799168 13.9795566,38.7105433 14.0278038,38.8201486 C14.069453,38.9248641 14.1660624,38.9899253 14.2698267,38.9831377 L18.807755,38.9831377 Z M36.7570635,18.2898425 C37.1921318,17.8762514 37.4268181,17.4690659 37.3075427,16.852131 C37.1882674,16.2351962 37.5899829,16.7578627 37.041285,16.5837204 C36.4925871,16.4095782 36.2378773,16.6241946 35.8344264,17.07523 L25.7286791,28.3081125 C26.3100923,28.7279122 25.595696,28.0052269 25.93296,28.6761537 L36.7570635,18.2898425 Z" id="Combined-Shape"></path>
                </g>
            </g>
        </g>
    </g>
</svg>