<?xml version="1.0" standalone="no"?>
<!DOCTYPE svg PUBLIC "-//W3C//DTD SVG 20010904//EN"
 "http://www.w3.org/TR/2001/REC-SVG-20010904/DTD/svg10.dtd">
<svg version="1.0" xmlns="http://www.w3.org/2000/svg"
 width="250.000000pt" height="250.000000pt" viewBox="0 0 250.000000 250.000000"
 preserveAspectRatio="xMidYMid meet">
<metadata>
Created by potrace 1.11, written by Peter Selinger 2001-2013
</metadata>
<g transform="translate(0.000000,250.000000) scale(0.100000,-0.100000)"
fill="#000000" stroke="none">
<path d="M1232 2436 c-222 -43 -449 -153 -640 -313 -291 -244 -496 -550 -568
-851 -21 -88 -25 -279 -8 -361 64 -304 327 -363 640 -144 70 49 194 167 239
228 17 22 33 42 36 45 16 14 118 176 214 340 158 270 217 353 325 460 111 110
212 175 347 223 114 41 133 57 133 113 0 38 -5 46 -52 89 -86 77 -228 148
-339 170 -72 14 -255 14 -327 1z"/>
<path d="M2094 1844 c-65 -13 -93 -25 -189 -82 -128 -76 -252 -196 -365 -354
-39 -54 -70 -101 -70 -105 0 -3 -6 -14 -14 -22 -7 -9 -25 -36 -38 -61 -292
-528 -456 -700 -762 -803 -79 -26 -110 -57 -108 -108 1 -39 42 -84 133 -145
210 -139 478 -159 784 -57 74 25 245 115 328 172 103 72 140 104 247 211 243
243 392 502 447 780 9 45 10 243 1 296 -21 128 -101 236 -201 273 -44 17 -127
19 -193 5z"/>
</g>
</svg>
